<svg fill="none" height="24" viewBox="0 0 24 24" width="24" xmlns="http://www.w3.org/2000/svg"><g fill="#1c274c"><path clip-rule="evenodd" d="m12.0196 14.9374c-.2912 0-.5889.0444-.8412.1422-.1238.0479-.2752.1235-.4085.2456-.1338.1227-.3067.3497-.3067.6747s.1729.552.3067.6746c.1333.1222.2847.1977.4085.2457.2523.0978.55.1422.8412.1422.2913 0 .5889-.0444.8413-.1422.1237-.048.2751-.1235.4084-.2457.1339-.1226.3068-.3496.3068-.6746s-.1729-.552-.3068-.6747c-.1333-.1221-.2847-.1977-.4084-.2456-.2524-.0978-.55-.1422-.8413-.1422z" fill-rule="evenodd"/><path d="m14.0365 12.6464c.165-.2664.4909-.5839.9798-.5839.4888 0 .8147.3175.9797.5839.1721.2779.2541.6148.2541.9474 0 .3325-.082.6694-.2541.9473-.165.2664-.4909.5839-.9797.5839-.4889 0-.8148-.3175-.9798-.5839-.1721-.2779-.2541-.6148-.2541-.9473 0-.3326.082-.6695.2541-.9474z"/><path d="m9.01634 12.0625c-.48883 0-.81473.3175-.97976.5839-.17213.2779-.25411.6148-.25411.9474 0 .3325.08198.6694.25411.9473.16503.2664.49093.5839.97976.5839.48884 0 .81474-.3175.97976-.5839.1721-.2779.2541-.6148.2541-.9473 0-.3326-.082-.6695-.2541-.9474-.16502-.2664-.49092-.5839-.97976-.5839z"/><path clip-rule="evenodd" d="m6.09485 4.25c-.61337 0-1.32022.17871-1.88603.66616-.58656.50534-.93878 1.27165-.93878 2.27134v1.875l.00001.00295c.00115.29396.05105.88212.21875 1.37375.05485.1609.14249.3742.28884.5666-.284.563-.4186 1.1437-.47977 1.7037-.05107.4676-.05176.9584-.04363 1.4116-.66104.2296-1.34547.5138-1.66104.7176-.34796.2247-.44786.689-.22314 1.0369.22472.348.68897.4479 1.03692.2232.11642-.0752.45988-.2324.91169-.4049.06888.4791.20849.9156.40343 1.3124-.15589.0972-.29363.1872-.40321.2589-.04195.0274-.07977.0521-.1129.0735-.34796.2247-.44786.689-.22314 1.0369.22472.348.68897.4479 1.03693.2232.04112-.0266.08495-.0552.1312-.0854.13118-.0856.28189-.184.44603-.2846.58952.6025 1.32164 1.0676 2.08215 1.4174 1.78082.8192 3.88984 1.1038 5.32094 1.1038 1.431 0 3.5401-.2846 5.3209-1.1038.7605-.3498 1.4926-.8149 2.0821-1.4174.1642.1006.3149.199.446.2846.0463.0302.0901.0588.1312.0854.348.2247.8122.1248 1.037-.2232.2247-.3479.1248-.8122-.2232-1.0369-.0331-.0214-.0709-.0461-.1129-.0735-.1096-.0717-.2473-.1617-.4031-.2589.1949-.3968.3346-.8333.4034-1.3125.452.1725.7956.3298.9121.405.3479.2247.8122.1248 1.0369-.2232.2247-.3479.1248-.8122-.2231-1.0369-.3157-.2038-1.0003-.4881-1.6615-.7177.0082-.4532.0075-.944-.0436-1.4115-.0611-.56-.1958-1.1407-.4798-1.7037.1464-.1924.234-.4057.2889-.5666.1677-.49162.2176-1.07979.2187-1.37375l.0001-.00295v-1.87489c0-.99969-.3523-1.76599-.9388-2.27133-.5658-.48746-1.2727-.66617-1.886-.66617-.4085 0-.831.15674-1.1717.31065-.3611.16316-.7385.37514-1.0779.5706-.073.04203-.1439.08308-.2128.12296l-.002.00116c-.264.15292-.4983.28862-.7071.39619-.1297.06683-.2304.11263-.3054.14039-.0316.01171-.0518.0176-.0622.02036-.2534-.0014-.4149-.02209-.6482-.05198-.05-.00641-.1034-.01325-.1617-.02041-.3466-.0426-.7842-.08367-1.5563-.08367s-1.2096.04107-1.5563.08367c-.0583.00716-.1116.014-.1617.02041-.2332.02989-.39472.05058-.64822.05198-.01036-.00276-.03056-.00866-.06214-.02036-.07496-.02776-.1757-.07357-.30541-.1404-.20878-.10758-.44302-.24324-.70707-.39618-.06951-.04025-.14108-.08171-.2148-.12416-.33944-.19548-.71682-.40748-1.07794-.57065-.34065-.15392-.76323-.31067-1.17167-.31067zm.06707 13.3638c.33403.2519.71888.4741 1.14412.6697 1.5309.7042 3.41186.9665 4.69406.9665s3.1631-.2623 4.694-.9665c.4253-.1956.8101-.4178 1.1441-.6697-.3524-.0614-.6203-.3688-.6203-.7388 0-.4142.3358-.75.75-.75.3272 0 .6616.0818.972.1954.1586-.3319.256-.6954.2827-1.0933-.2977-.0727-.5033-.1021-.6092-.1021-.4142 0-.75-.3358-.75-.75s.3358-.75.75-.75c.1947 0 .415.0292.637.0724.0001-.2761-.0089-.5472-.0392-.825-.0705-.6454-.2532-1.2183-.6843-1.7277-.1542-.1822-.346-.3634-.5867-.5402-.3339-.2451-.4058-.71451-.1606-1.04839.2451-.33387.7145-.4058 1.0484-.16065.1191.08746.2317.17736.3379.2696.044-.2282.0636-.46689.0643-.60419v-1.87326c0-.6253-.2064-.95275-.4179-1.13491-.2322-.20004-.5627-.30259-.9069-.30259-.0704 0-.2464.03857-.5541.1776-.2873.12979-.6081.30841-.947.50354-.0636.03665-.1284.07419-.1937.11203-.2678.15515-.5446.31555-.7897.44181-.1546.07964-.3157.1559-.4714.21358-.1437.05325-.3425.11383-.5554.11383-.3718 0-.6324-.03373-.8826-.0661-.0461-.00597-.0919-.01191-.138-.01757-.2887-.03547-.6651-.07247-1.3734-.07247-.7082 0-1.0847.037-1.3734.07247-.046.00566-.0918.01159-.138.01756-.2501.03238-.51074.06611-.8826.06611-.21284 0-.41165-.06059-.55541-.11384-.15572-.05768-.31683-.13395-.47141-.2136-.24505-.12626-.52186-.28667-.7896-.44181-.06533-.03786-.13013-.07541-.19379-.11207-.33887-.19515-.65975-.37377-.94701-.50357-.30773-.13905-.48366-.17761-.55403-.17761-.34423 0-.67478.10254-.90698.30259-.21144.18216-.41783.5096-.41783 1.13491v1.87338c.00066.13731.02021.37598.06421.60418.10628-.09225.21884-.18214.33795-.2696.33388-.24515.80327-.17322 1.04842.16066.24515.33387.17323.80328-.16065 1.04838-.24071.1768-.43249.358-.58666.5402-.43108.5094-.61382 1.0823-.68431 1.7277-.03035.2778-.03934.5489-.03925.8251.22217-.0432.44256-.0725.63744-.0725.41422 0 .75.3358.75.75s-.33578.75-.75.75c-.10598 0-.3117.0294-.60961.1021.02676.3979.1241.7614.28269 1.0932.31042-.1135.64477-.1953.97197-.1953.41422 0 .75.3358.75.75 0 .37-.26791.6774-.62032.7388z" fill-rule="evenodd"/></g></svg>